<svg viewBox="89.363 -178.775 470.248 435.877" xmlns="http://www.w3.org/2000/svg" xmlns:xlink="http://www.w3.org/1999/xlink">
  <g transform="matrix(1, 0, 0, 1, 18.831312, -217.69057)">
    <path d="M 190.41 436.8 L 491.41 436.8 C 491.41 305.922 497.845 285.75 340.91 285.75 C 183.975 285.75 190.41 308.001 190.41 436.8 Z" style="stroke: rgb(0, 0, 0); fill: none; stroke-width: 20px;" />
    <path d="M 340.91 72.6 C 295.09 72.6 257.816 109.873 257.816 155.694 C 257.816 201.514 295.089 238.788 340.91 238.788 C 386.731 238.788 424.004 201.515 424.004 155.694 C 424.004 109.874 386.731 72.6 340.91 72.6 Z" style="fill: none; stroke: rgb(0, 0, 0); stroke-width: 20px;" />
    <path d="M 168 181.6 C 161.816 181.6 158.801 186.62 158.801 192.799 L 158.801 235.6 L 117 235.6 C 110.816 235.6 105.801 237.62 105.801 243.799 C 105.801 249.983 110.821 251.998 117 251.998 L 158.801 251.998 L 158.801 294.799 C 158.801 300.983 161.821 305.998 168 305.998 C 174.184 305.998 177.199 300.979 177.199 294.799 L 177.199 251.998 L 218 251.998 C 224.184 251.998 229.199 249.979 229.199 243.799 C 229.199 237.615 224.18 235.6 218 235.6 L 177.199 235.6 L 177.199 192.799 C 177.199 186.615 174.183 181.6 168 181.6 Z" style="stroke: rgb(0, 0, 0); stroke-width: 0px;" />
</svg>