<svg xmlns="http://www.w3.org/2000/svg" xmlns:xlink="http://www.w3.org/1999/xlink" version="1.1" width="256" height="256" viewBox="0 0 256 256" xml:space="preserve">

<defs>
</defs>
<g style="stroke: none; stroke-width: 0; stroke-dasharray: none; stroke-linecap: butt; stroke-linejoin: miter; stroke-miterlimit: 10; fill: none; fill-rule: nonzero; opacity: 1;" transform="translate(0 -2.842170943040401e-14) scale(2.81 2.81)" >
	<rect x="0" y="0" rx="0" ry="0" width="90" height="90" style="stroke: none; stroke-width: 1; stroke-dasharray: none; stroke-linecap: butt; stroke-linejoin: miter; stroke-miterlimit: 10; fill: rgb(0,0,0); fill-rule: nonzero; opacity: 1;" transform=" matrix(1 0 0 1 0 0) "/>
</g>
<g style="stroke: none; stroke-width: 0; stroke-dasharray: none; stroke-linecap: butt; stroke-linejoin: miter; stroke-miterlimit: 10; fill: none; fill-rule: nonzero; opacity: 1;" transform="translate(46.17984832069338 46.17984832069335) scale(1.82 1.82)" >
	<linearGradient id="SVGID_700" gradientUnits="userSpaceOnUse" x1="11.0257" y1="72.3106" x2="77.0494" y2="9.644">
<stop offset="0%" style="stop-color:#ffffff;stop-opacity: 1"/>
<stop offset="50%" style="stop-color:#ffffff;stop-opacity: 1"/>
<stop offset="100%" style="stop-color:#ffffff;stop-opacity: 1"/>
</linearGradient>
<path d="M 89.514 20.901 C 87.247 9.606 77.255 1.068 65.302 1.068 H 61.76 l 11.035 19.833 H 89.514 z" style="stroke: none; stroke-width: 1; stroke-dasharray: none; stroke-linecap: butt; stroke-linejoin: miter; stroke-miterlimit: 10; fill: url(#SVGID_700); fill-rule: nonzero; opacity: 1;" transform=" matrix(1 0 0 1 0 0) " stroke-linecap="round" />
	<linearGradient id="SVGID_701" gradientUnits="userSpaceOnUse" x1="-3.634" y1="56.8655" x2="62.3897" y2="-5.801">
<stop offset="0%" style="stop-color:#ffffff;stop-opacity: 1"/>
<stop offset="50%" style="stop-color:#ffffff;stop-opacity: 1"/>
<stop offset="100%" style="stop-color:#ffffff;stop-opacity: 1"/>
</linearGradient>
<polygon points="61.66,20.9 50.63,1.07 27.75,1.07 38.78,20.9 " style="stroke: none; stroke-width: 1; stroke-dasharray: none; stroke-linecap: butt; stroke-linejoin: miter; stroke-miterlimit: 10; fill: url(#SVGID_701); fill-rule: nonzero; opacity: 1;" transform="  matrix(1 0 0 1 0 0) "/>
	<linearGradient id="SVGID_702" gradientUnits="userSpaceOnUse" x1="-14.7463" y1="45.1579" x2="51.2774" y2="-17.5086">
<stop offset="0%" style="stop-color:#ffffff;stop-opacity: 1"/>
<stop offset="50%" style="stop-color:#ffffff;stop-opacity: 1"/>
<stop offset="100%" style="stop-color:#ffffff;stop-opacity: 1"/>
</linearGradient>
<path d="M 17.254 2.22 C 8.772 4.908 2.261 12.057 0.486 20.901 h 27.162 L 17.254 2.22 z" style="stroke: none; stroke-width: 1; stroke-dasharray: none; stroke-linecap: butt; stroke-linejoin: miter; stroke-miterlimit: 10; fill: url(#SVGID_702); fill-rule: nonzero; opacity: 1;" transform=" matrix(1 0 0 1 0 0) " stroke-linecap="round" />
	<linearGradient id="SVGID_703" gradientUnits="userSpaceOnUse" x1="17.3497" y1="78.9733" x2="83.3734" y2="16.3068">
<stop offset="0%" style="stop-color:#ffffff;stop-opacity: 1"/>
<stop offset="50%" style="stop-color:#ffffff;stop-opacity: 1"/>
<stop offset="100%" style="stop-color:#ffffff;stop-opacity: 1"/>
</linearGradient>
<path d="M 0 30.631 v 33.603 c 0 13.618 11.08 24.697 24.698 24.697 h 40.604 C 78.92 88.931 90 77.852 90 64.234 V 30.631 H 0 z M 58.825 61.099 L 37.65 72.416 c -2.878 1.538 -6.357 -0.547 -6.357 -3.81 V 45.971 c 0 -3.263 3.479 -5.349 6.357 -3.81 l 21.175 11.317 C 61.87 55.105 61.87 59.471 58.825 61.099 z" style="stroke: none; stroke-width: 1; stroke-dasharray: none; stroke-linecap: butt; stroke-linejoin: miter; stroke-miterlimit: 10; fill: url(#SVGID_703); fill-rule: nonzero; opacity: 1;" transform=" matrix(1 0 0 1 0 0) " stroke-linecap="round" />
</g>
</svg>