<?xml version="1.0" encoding="utf-8"?>
<svg viewBox="0 0 500 200" xmlns="http://www.w3.org/2000/svg">
  <defs>
    <linearGradient id="a" x1="61" y1="117" x2="259" y2="127" gradientUnits="userSpaceOnUse" gradientTransform="matrix(0.400708, 0, 0, 0.400708, 55.736149, 67.00029)">
      <stop offset="0" stop-color="#0064e1"/>
      <stop offset="0.4" stop-color="#0064e1"/>
      <stop offset="0.83" stop-color="#0073ee"/>
      <stop offset="1" stop-color="#0082fb"/>
    </linearGradient>
    <linearGradient id="b" x1="45" y1="139" x2="45" y2="66" gradientUnits="userSpaceOnUse" gradientTransform="matrix(0.400708, 0, 0, 0.400708, 55.736149, 67.00029)">
      <stop offset="0" stop-color="#0082fb"/>
      <stop offset="1" stop-color="#0064e0"/>
    </linearGradient>
  </defs>
  <path d="M 68.182 117.473 C 68.182 121.873 69.148 125.251 70.41 127.295 C 72.065 129.972 74.533 131.106 77.05 131.106 C 80.296 131.106 83.265 130.3 88.987 122.386 C 93.571 116.043 98.973 107.139 102.607 101.557 L 108.762 92.101 C 113.037 85.533 117.986 78.232 123.66 73.283 C 128.292 69.244 133.289 67 138.318 67 C 146.761 67 154.803 71.893 160.958 81.069 C 167.694 91.119 170.964 103.777 170.964 116.84 C 170.964 124.606 169.433 130.312 166.828 134.82 C 164.312 139.18 159.407 143.535 151.157 143.535 L 151.157 131.106 C 158.221 131.106 159.984 124.614 159.984 117.185 C 159.984 106.598 157.516 94.849 152.078 86.455 C 148.22 80.5 143.219 76.862 137.717 76.862 C 131.766 76.862 126.978 81.35 121.596 89.352 C 118.735 93.603 115.798 98.784 112.5 104.631 L 108.87 111.062 C 101.577 123.993 99.73 126.938 96.083 131.799 C 89.692 140.31 84.234 143.535 77.05 143.535 C 68.527 143.535 63.137 139.845 59.799 134.283 C 57.075 129.751 55.736 123.805 55.736 117.029 L 68.182 117.473 Z" fill="#0081fb" style=""/>
  <path d="M 65.549 81.947 C 71.256 73.151 79.49 67 88.935 67 C 94.404 67 99.842 68.619 105.52 73.255 C 111.731 78.324 118.351 86.671 126.609 100.427 L 129.571 105.364 C 136.719 117.273 140.786 123.4 143.167 126.289 C 146.228 130 148.372 131.106 151.157 131.106 C 158.221 131.106 159.984 124.614 159.984 117.185 L 170.964 116.84 C 170.964 124.606 169.433 130.312 166.828 134.82 C 164.312 139.18 159.407 143.535 151.157 143.535 C 146.028 143.535 141.484 142.422 136.459 137.681 C 132.596 134.043 128.08 127.579 124.606 121.769 L 114.272 104.507 C 109.086 95.843 104.33 89.384 101.577 86.459 C 98.616 83.313 94.809 79.514 88.734 79.514 C 83.818 79.514 79.642 82.964 76.148 88.242 L 65.549 81.947 Z" fill="url(#a)" style=""/>
  <path d="M 88.734 79.514 C 83.818 79.514 79.642 82.964 76.148 88.242 C 71.207 95.699 68.182 106.807 68.182 117.473 C 68.182 121.873 69.148 125.251 70.41 127.295 L 59.799 134.283 C 57.075 129.751 55.736 123.805 55.736 117.029 C 55.736 104.707 59.118 91.864 65.549 81.947 C 71.256 73.151 79.49 67 88.935 67 L 88.734 79.514 Z" fill="url(#b)" style=""/>
  <path d="M 195.158 69.421 L 209.556 69.421 L 234.035 113.707 L 258.518 69.421 L 272.603 69.421 L 272.603 142.189 L 260.858 142.189 L 260.858 86.419 L 239.389 125.039 L 228.369 125.039 L 206.903 86.419 L 206.903 142.189 L 195.158 142.189 L 195.158 69.421 Z M 309.404 96.552 C 300.981 96.552 295.908 102.892 294.694 110.742 L 323.281 110.742 C 322.692 102.655 318.027 96.552 309.404 96.552 Z M 283.05 115.213 C 283.05 98.696 293.725 86.675 309.609 86.675 C 325.232 86.675 334.561 98.544 334.561 116.095 L 334.561 119.321 L 294.694 119.321 C 296.109 127.86 301.775 133.614 310.911 133.614 C 318.2 133.614 322.756 131.39 327.075 127.323 L 333.314 134.964 C 327.436 140.37 319.959 143.487 310.494 143.487 C 293.3 143.487 283.05 130.949 283.05 115.213 Z M 348.802 97.594 L 337.991 97.594 L 337.991 87.977 L 348.802 87.977 L 348.802 72.073 L 360.134 72.073 L 360.134 87.977 L 376.559 87.977 L 376.559 97.594 L 360.134 97.594 L 360.134 121.969 C 360.134 130.292 362.795 133.249 369.334 133.249 C 372.319 133.249 374.03 132.993 376.559 132.572 L 376.559 142.085 C 373.409 142.974 370.404 143.383 367.15 143.383 C 354.917 143.383 348.802 136.699 348.802 123.32 L 348.802 97.594 Z M 424.275 106.947 C 421.999 101.201 416.922 96.969 409.461 96.969 C 399.764 96.969 393.557 103.849 393.557 115.057 C 393.557 125.984 399.271 133.197 408.996 133.197 C 416.642 133.197 422.099 128.749 424.275 123.216 L 424.275 106.947 Z M 435.607 142.189 L 424.484 142.189 L 424.484 134.6 C 421.374 139.068 415.716 143.487 406.552 143.487 C 391.814 143.487 381.964 131.15 381.964 115.057 C 381.964 98.812 392.05 86.675 407.177 86.675 C 414.654 86.675 420.521 89.664 424.484 94.942 L 424.484 87.977 L 435.607 87.977 L 435.607 142.189 Z" fill="#192830" style=""/>
</svg>