<?xml version="1.0" encoding="utf-8"?>
<svg viewBox="0 0 80 80" xmlns="http://www.w3.org/2000/svg">
  <ellipse style="stroke: rgb(0, 0, 0); fill: none; stroke-width: 5px;" cx="40.419" cy="36.78" rx="10.173" ry="10.173"/>
  <path style="stroke: rgb(0, 0, 0); fill: none; stroke-linejoin: round; stroke-linecap: round; stroke-width: 5px; opacity: 1;" d="M 32.661 17.371 L 40.25 11.383 L 48.269 17.372 L 65.283 17.372 C 67.149 17.372 68.662 18.885 68.662 20.751 L 68.662 64.405 C 68.662 66.271 67.149 67.784 65.283 67.784 L 40.466 67.784 L 15.648 67.784 C 13.782 67.784 12.269 66.271 12.269 64.405 L 12.269 20.751 C 12.269 18.885 13.782 17.372 15.648 17.372 L 32.661 17.371 Z"/>
  <path style="stroke: rgb(0, 0, 0); fill: none; stroke-width: 5px; opacity: 1;" d="M 22.058 67.784 C 22.058 59.376 24.891 54.437 40.26 54.437 C 56.179 54.437 58.767 59.438 58.767 67.784"/>
</svg>