<svg id="eh9xOFAsi271" xmlns="http://www.w3.org/2000/svg" xmlns:xlink="http://www.w3.org/1999/xlink" viewBox="0 0 24 24" shape-rendering="geometricPrecision" text-rendering="geometricPrecision"><path d="M3.624,15c2.86547,2.869516,7.420727,3.152209,10.619.659l5.318,5.318c.392379.378972,1.016085.373552,1.401819-.012181s.391153-1.00944.012181-1.401819l-5.318-5.318c2.611852-3.351915,2.164339-8.157522-1.021517-10.969537s-8.009838-2.659325-11.011483.348537C2.114947,5.132285,1.267105,7.17842,1.267105,9.312s.847842,4.179715,2.356895,5.688ZM5.038,5.04c2.038518-2.038474,5.233098-2.353142,7.630163-.751577s3.329043,4.673337,2.226002,7.336837-3.933908,4.176957-6.761444,3.614848-4.864288-3.04324-4.864721-5.926108c-.005542-1.604677.631935-3.144706,1.77-4.276Z" stroke="#000" stroke-width="0.5"/></svg>
