<svg xmlns="http://www.w3.org/2000/svg" xmlns:xlink="http://www.w3.org/1999/xlink" viewBox="0 0 32 32" shape-rendering="geometricPrecision" text-rendering="geometricPrecision"><g transform="matrix(.751754 0.273616-.273616 0.751754 6.030653 0.414069)"><path d="M29.597522,0.830653c.234258-.085262-.0037.001347-.0037.001347L12.326754,18.496306c0,0,0,0,0,0L0.919291,12.458018c-.331263-.175345-.528263-.52926-.502762-.903101s.268722-.697773.620725-.82653L28.549251,0.664441c1.106016-.428936,1.204742.019049,1.048271.166212Z" transform="translate(-.071721 0.153807)" clip-rule="evenodd" fill="none" fill-rule="evenodd" stroke="#000"/><path d="M30.017944,0.883c.406125-.165518.512261.580556.359309.998703L20.313357,29.393749c-.128756.35207-.452593.595292-.826528.620724s-.727755-.171479-.9031-.502766L12.747177,18.548654c0,0,0,0,0,0L30.017943,0.883003c0,0-.186838-.17571.000001-.000003Z" transform="translate(-.492144 0.101459)" clip-rule="evenodd" fill="none" fill-rule="evenodd" stroke="#000"/></g></svg>
