<svg id="ekuRhEePF4Z1" xmlns="http://www.w3.org/2000/svg" xmlns:xlink="http://www.w3.org/1999/xlink" viewBox="0 0 8.467 8.467" shape-rendering="geometricPrecision" text-rendering="geometricPrecision"><path d="M16.41935,25.000517h-11.996105c-.571302,0-1.005859-.432593-1.005859-1.003906v-15.996094c0-.571313.434557-1.003906,1.005859-1.003906h17.996094c.571302,0,1.003906.432593,1.003906,1.003906v15.996094c0,.571313-.432604,1.003906-1.003906,1.003906h-2c0,0-4,0-4,0s.000001,2,.000001,2s3.999999,0,3.999999,0h2c1.644709,0,3.003906-1.359207,3.003906-3.003906v-.498047l1.201172.900391c1.926846,1.4448,4.796875.003779,4.796875-2.402344v-11.996094c0-1.678261-1.41007-3.048869-3.087891-3-.618581.018898-1.214735.227149-1.708984.597656l-1.201172.900391v-.498047c0-1.644699-1.359197-3.005859-3.003906-3.005859h-17.996094c-1.64471,0-3.005859,1.36116-3.005859,3.005859v15.996094c0,1.644737,1.361149,3.003906,3.005859,3.003906h11.996109m11.972641-18c.578019-.015118,1.029297.42143,1.029297,1v11.996094c0,.8832-.891674,1.330142-1.597656.800781l-2.400391-1.800781v-9.996094l2.400391-1.800781c.16371-.122835.365182-.19355.568359-.199219Z" transform="matrix(.26458 0 0 0.26458-.110729 0.000828)" paint-order="stroke fill markers" fill-rule="evenodd"/></svg>
